{
.appVersion = "3436";
DisplayStrings = (
"/newGlyph"
);
date = "2024-09-27 13:13:17 +0000";
disablesAutomaticAlignment = 1;
familyName = "RR GlyphStruct";
featurePrefixes = (
{
automatic = 1;
code = "languagesystem DFLT dflt;\012";
name = Languagesystems;
}
);
fontMaster = (
{
ascender = 700;
capHeight = 600;
descender = -200;
id = "E77A9F44-C317-449E-877C-5FBA2A1B1F0B";
xHeight = 500;
}
);
glyphs = (
{
glyphname = _part.cap01;
lastChange = "2026-05-31 21:13:00 +0000";
layers = (
{
layerId = "E77A9F44-C317-449E-877C-5FBA2A1B1F0B";
paths = (
{
closed = 1;
nodes = (
"100 0 LINE",
"100 30 OFFCURVE",
"77 50 OFFCURVE",
"50 50 CURVE SMOOTH",
"21 50 OFFCURVE",
"0 30 OFFCURVE",
"0 0 CURVE"
);
}
);
width = 100;
}
);
},
{
glyphname = _part.cap02;
lastChange = "2026-05-31 21:13:01 +0000";
layers = (
{
layerId = "E77A9F44-C317-449E-877C-5FBA2A1B1F0B";
paths = (
{
closed = 1;
nodes = (
"30 0 OFFCURVE",
"50 24 OFFCURVE",
"50 50 CURVE SMOOTH",
"50 80 OFFCURVE",
"30 100 OFFCURVE",
"0 100 CURVE",
"0 0 LINE"
);
}
);
width = 100;
}
);
},
{
glyphname = _part.cap03;
lastChange = "2026-05-31 21:13:02 +0000";
layers = (
{
layerId = "E77A9F44-C317-449E-877C-5FBA2A1B1F0B";
paths = (
{
closed = 1;
nodes = (
"80 0 OFFCURVE",
"100 20 OFFCURVE",
"100 50 CURVE",
"0 50 LINE",
"0 20 OFFCURVE",
"24 0 OFFCURVE",
"50 0 CURVE SMOOTH"
);
}
);
width = 100;
}
);
},
{
glyphname = _part.cap04;
lastChange = "2026-05-31 21:13:03 +0000";
layers = (
{
layerId = "E77A9F44-C317-449E-877C-5FBA2A1B1F0B";
paths = (
{
closed = 1;
nodes = (
"50 100 LINE",
"20 100 OFFCURVE",
"0 76 OFFCURVE",
"0 50 CURVE SMOOTH",
"0 20 OFFCURVE",
"20 0 OFFCURVE",
"50 0 CURVE"
);
}
);
width = 100;
}
);
},
{
glyphname = _part.corner01;
lastChange = "2026-05-31 21:13:04 +0000";
layers = (
{
layerId = "E77A9F44-C317-449E-877C-5FBA2A1B1F0B";
paths = (
{
closed = 1;
nodes = (
"50 50 LINE",
"0 50 LINE",
"0 0 LINE"
);
}
);
width = 50;
}
);
},
{
glyphname = _part.corner02;
lastChange = "2026-05-31 21:13:06 +0000";
layers = (
{
layerId = "E77A9F44-C317-449E-877C-5FBA2A1B1F0B";
paths = (
{
closed = 1;
nodes = (
"50 50 LINE",
"0 50 LINE",
"50 0 LINE"
);
}
);
width = 50;
}
);
},
{
glyphname = _part.corner03;
lastChange = "2026-05-31 21:13:07 +0000";
layers = (
{
layerId = "E77A9F44-C317-449E-877C-5FBA2A1B1F0B";
paths = (
{
closed = 1;
nodes = (
"50 0 LINE",
"50 50 LINE",
"0 0 LINE"
);
}
);
width = 50;
}
);
},
{
glyphname = _part.corner04;
lastChange = "2026-05-31 21:13:08 +0000";
layers = (
{
layerId = "E77A9F44-C317-449E-877C-5FBA2A1B1F0B";
paths = (
{
closed = 1;
nodes = (
"50 0 LINE",
"0 50 LINE",
"0 0 LINE"
);
}
);
width = 50;
}
);
},
{
glyphname = _part.cornercut01;
lastChange = "2026-05-31 21:13:09 +0000";
layers = (
{
layerId = "E77A9F44-C317-449E-877C-5FBA2A1B1F0B";
paths = (
{
closed = 1;
nodes = (
"100 0 LINE",
"100 100 LINE",
"50 100 LINE",
"0 50 LINE",
"0 0 LINE"
);
}
);
width = 100;
}
);
},
{
glyphname = _part.cornercut02;
lastChange = "2026-05-31 21:13:10 +0000";
layers = (
{
layerId = "E77A9F44-C317-449E-877C-5FBA2A1B1F0B";
paths = (
{
closed = 1;
nodes = (
"100 0 LINE",
"100 50 LINE",
"50 100 LINE",
"0 100 LINE",
"0 0 LINE"
);
}
);
width = 100;
}
);
},
{
glyphname = _part.cornercut03;
lastChange = "2026-05-31 21:13:11 +0000";
layers = (
{
layerId = "E77A9F44-C317-449E-877C-5FBA2A1B1F0B";
paths = (
{
closed = 1;
nodes = (
"50 0 LINE",
"100 50 LINE",
"100 100 LINE",
"0 100 LINE",
"0 0 LINE"
);
}
);
width = 100;
}
);
},
{
glyphname = _part.cornercut04;
lastChange = "2026-05-31 21:13:13 +0000";
layers = (
{
layerId = "E77A9F44-C317-449E-877C-5FBA2A1B1F0B";
paths = (
{
closed = 1;
nodes = (
"100 0 LINE",
"100 100 LINE",
"0 100 LINE",
"0 50 LINE",
"50 0 LINE"
);
}
);
width = 100;
}
);
},
{
glyphname = _part.diagonal01;
lastChange = "2026-05-31 21:13:14 +0000";
layers = (
{
layerId = "E77A9F44-C317-449E-877C-5FBA2A1B1F0B";
paths = (
{
closed = 1;
nodes = (
"100 0 LINE",
"100 100 LINE",
"0 0 LINE"
);
}
);
width = 100;
}
);
},
{
glyphname = _part.diagonal02;
lastChange = "2026-05-31 21:13:15 +0000";
layers = (
{
layerId = "E77A9F44-C317-449E-877C-5FBA2A1B1F0B";
paths = (
{
closed = 1;
nodes = (
"100 0 LINE",
"0 100 LINE",
"0 0 LINE"
);
}
);
width = 100;
}
);
},
{
glyphname = _part.diagonal03;
lastChange = "2026-05-31 21:13:16 +0000";
layers = (
{
layerId = "E77A9F44-C317-449E-877C-5FBA2A1B1F0B";
paths = (
{
closed = 1;
nodes = (
"100 100 LINE",
"0 100 LINE",
"0 0 LINE"
);
}
);
width = 100;
}
);
},
{
glyphname = _part.diagonal04;
lastChange = "2026-05-31 21:13:17 +0000";
layers = (
{
layerId = "E77A9F44-C317-449E-877C-5FBA2A1B1F0B";
paths = (
{
closed = 1;
nodes = (
"100 100 LINE",
"0 100 LINE",
"100 0 LINE"
);
}
);
width = 100;
}
);
},
{
glyphname = _part.diagonalshallow01;
lastChange = "2026-05-31 21:13:18 +0000";
layers = (
{
layerId = "E77A9F44-C317-449E-877C-5FBA2A1B1F0B";
paths = (
{
closed = 1;
nodes = (
"100 0 LINE",
"100 50 LINE",
"0 0 LINE"
);
}
);
width = 100;
}
);
},
{
glyphname = _part.diagonalshallow02;
lastChange = "2026-05-31 21:13:19 +0000";
layers = (
{
layerId = "E77A9F44-C317-449E-877C-5FBA2A1B1F0B";
paths = (
{
closed = 1;
nodes = (
"100 0 LINE",
"0 50 LINE",
"0 0 LINE"
);
}
);
width = 100;
}
);
},
{
glyphname = _part.diagonalshallow03;
lastChange = "2026-05-31 21:13:21 +0000";
layers = (
{
layerId = "E77A9F44-C317-449E-877C-5FBA2A1B1F0B";
paths = (
{
closed = 1;
nodes = (
"100 50 LINE",
"0 50 LINE",
"0 0 LINE"
);
}
);
width = 100;
}
);
},
{
glyphname = _part.diagonalshallow04;
lastChange = "2026-05-31 21:13:22 +0000";
layers = (
{
layerId = "E77A9F44-C317-449E-877C-5FBA2A1B1F0B";
paths = (
{
closed = 1;
nodes = (
"100 50 LINE",
"0 50 LINE",
"100 0 LINE"
);
}
);
width = 100;
}
);
},
{
glyphname = _part.diagonalshallowv01;
lastChange = "2026-05-31 21:13:23 +0000";
layers = (
{
layerId = "E77A9F44-C317-449E-877C-5FBA2A1B1F0B";
paths = (
{
closed = 1;
nodes = (
"50 0 LINE",
"50 100 LINE",
"0 0 LINE"
);
}
);
width = 100;
}
);
},
{
glyphname = _part.diagonalshallowv02;
lastChange = "2026-05-31 21:13:24 +0000";
layers = (
{
layerId = "E77A9F44-C317-449E-877C-5FBA2A1B1F0B";
paths = (
{
closed = 1;
nodes = (
"50 0 LINE",
"0 100 LINE",
"0 0 LINE"
);
}
);
width = 100;
}
);
},
{
glyphname = _part.diagonalshallowv03;
lastChange = "2026-05-31 21:13:26 +0000";
layers = (
{
layerId = "E77A9F44-C317-449E-877C-5FBA2A1B1F0B";
paths = (
{
closed = 1;
nodes = (
"50 100 LINE",
"0 100 LINE",
"0 0 LINE"
);
}
);
width = 100;
}
);
},
{
glyphname = _part.diagonalshallowv04;
lastChange = "2026-05-31 21:13:27 +0000";
layers = (
{
layerId = "E77A9F44-C317-449E-877C-5FBA2A1B1F0B";
paths = (
{
closed = 1;
nodes = (
"50 100 LINE",
"0 100 LINE",
"50 0 LINE"
);
}
);
width = 100;
}
);
},
{
glyphname = _part.round_corner_inner01;
lastChange = "2026-05-31 21:13:29 +0000";
layers = (
{
layerId = "E77A9F44-C317-449E-877C-5FBA2A1B1F0B";
paths = (
{
closed = 1;
nodes = (
"0 80 OFFCURVE",
"20 100 OFFCURVE",
"50 100 CURVE",
"0 100 LINE",
"0 50 LINE"
);
}
);
width = 50;
}
);
},
{
glyphname = _part.round_corner_inner02;
lastChange = "2026-05-31 21:13:30 +0000";
layers = (
{
layerId = "E77A9F44-C317-449E-877C-5FBA2A1B1F0B";
paths = (
{
closed = 1;
nodes = (
"50 100 LINE",
"0 100 LINE",
"30 100 OFFCURVE",
"50 80 OFFCURVE",
"50 50 CURVE"
);
}
);
width = 50;
}
);
},
{
glyphname = _part.round_corner_inner03;
lastChange = "2026-05-31 21:13:31 +0000";
layers = (
{
layerId = "E77A9F44-C317-449E-877C-5FBA2A1B1F0B";
paths = (
{
closed = 1;
nodes = (
"50 50 LINE",
"50 100 LINE",
"50 70 OFFCURVE",
"30 50 OFFCURVE",
"0 50 CURVE"
);
}
);
width = 50;
}
);
},
{
glyphname = _part.round_corner_inner04;
lastChange = "2026-05-31 21:13:32 +0000";
layers = (
{
layerId = "E77A9F44-C317-449E-877C-5FBA2A1B1F0B";
paths = (
{
closed = 1;
nodes = (
"50 50 LINE",
"20 50 OFFCURVE",
"0 70 OFFCURVE",
"0 100 CURVE",
"0 50 LINE"
);
}
);
width = 50;
}
);
},
{
glyphname = _part.segment01;
lastChange = "2026-05-31 21:13:33 +0000";
layers = (
{
layerId = "E77A9F44-C317-449E-877C-5FBA2A1B1F0B";
paths = (
{
closed = 1;
nodes = (
"100 0 LINE",
"100 100 LINE",
"44 97 OFFCURVE",
"-1 52 OFFCURVE",
"0 0 CURVE"
);
}
);
width = 100;
}
);
},
{
glyphname = _part.segment02;
lastChange = "2026-05-31 21:13:35 +0000";
layers = (
{
layerId = "E77A9F44-C317-449E-877C-5FBA2A1B1F0B";
paths = (
{
closed = 1;
nodes = (
"100 0 LINE",
"98 56 OFFCURVE",
"52 102 OFFCURVE",
"0 100 CURVE",
"0 0 LINE"
);
}
);
width = 100;
}
);
},
{
glyphname = _part.segment03;
lastChange = "2026-05-31 21:13:36 +0000";
layers = (
{
layerId = "E77A9F44-C317-449E-877C-5FBA2A1B1F0B";
paths = (
{
closed = 1;
nodes = (
"56 2 OFFCURVE",
"102 48 OFFCURVE",
"100 100 CURVE",
"0 100 LINE",
"0 0 LINE"
);
}
);
width = 100;
}
);
},
{
glyphname = _part.segment04;
lastChange = "2026-05-31 21:13:37 +0000";
layers = (
{
layerId = "E77A9F44-C317-449E-877C-5FBA2A1B1F0B";
paths = (
{
closed = 1;
nodes = (
"100 100 LINE",
"0 100 LINE",
"2 44 OFFCURVE",
"48 -2 OFFCURVE",
"100 0 CURVE"
);
}
);
width = 100;
}
);
},
{
glyphname = _part.segment_quarter01;
lastChange = "2026-05-31 21:13:39 +0000";
layers = (
{
layerId = "E77A9F44-C317-449E-877C-5FBA2A1B1F0B";
paths = (
{
closed = 1;
nodes = (
"50 0 LINE",
"50 50 LINE",
"22 50 OFFCURVE",
"0 28 OFFCURVE",
"0 0 CURVE"
);
}
);
width = 100;
}
);
},
{
glyphname = _part.segment_quarter02;
lastChange = "2026-05-31 21:13:40 +0000";
layers = (
{
layerId = "E77A9F44-C317-449E-877C-5FBA2A1B1F0B";
paths = (
{
closed = 1;
nodes = (
"50 0 LINE",
"50 28 OFFCURVE",
"28 50 OFFCURVE",
"0 50 CURVE",
"0 0 LINE"
);
}
);
width = 100;
}
);
},
{
glyphname = _part.segment_quarter03;
lastChange = "2026-05-31 21:13:41 +0000";
layers = (
{
layerId = "E77A9F44-C317-449E-877C-5FBA2A1B1F0B";
paths = (
{
closed = 1;
nodes = (
"28 0 OFFCURVE",
"50 22 OFFCURVE",
"50 50 CURVE",
"0 50 LINE",
"0 0 LINE"
);
}
);
width = 100;
}
);
},
{
glyphname = _part.segment_quarter04;
lastChange = "2026-05-31 21:13:43 +0000";
layers = (
{
layerId = "E77A9F44-C317-449E-877C-5FBA2A1B1F0B";
paths = (
{
closed = 1;
nodes = (
"50 50 LINE",
"0 50 LINE",
"0 22 OFFCURVE",
"22 0 OFFCURVE",
"50 0 CURVE"
);
}
);
width = 100;
}
);
},
{
glyphname = _part.square01;
lastChange = "2026-05-31 21:13:44 +0000";
layers = (
{
layerId = "E77A9F44-C317-449E-877C-5FBA2A1B1F0B";
paths = (
{
closed = 1;
nodes = (
"100 0 LINE",
"100 100 LINE",
"0 100 LINE",
"0 0 LINE"
);
}
);
width = 100;
}
);
},
{
glyphname = _part.square02;
lastChange = "2026-05-31 21:13:46 +0000";
layers = (
{
layerId = "E77A9F44-C317-449E-877C-5FBA2A1B1F0B";
paths = (
{
closed = 1;
nodes = (
"50 0 LINE",
"50 50 LINE",
"0 50 LINE",
"0 0 LINE"
);
}
);
width = 100;
}
);
},
{
glyphname = _part.square03;
lastChange = "2026-05-31 21:13:47 +0000";
layers = (
{
layerId = "E77A9F44-C317-449E-877C-5FBA2A1B1F0B";
paths = (
{
closed = 1;
nodes = (
"100 0 LINE",
"100 50 LINE",
"0 50 LINE",
"0 0 LINE"
);
}
);
width = 100;
}
);
},
{
glyphname = _part.square04;
lastChange = "2026-05-31 21:13:48 +0000";
layers = (
{
layerId = "E77A9F44-C317-449E-877C-5FBA2A1B1F0B";
paths = (
{
closed = 1;
nodes = (
"50 0 LINE",
"50 100 LINE",
"0 100 LINE",
"0 0 LINE"
);
}
);
width = 100;
}
);
},
